<svg width="30" height="30" viewBox="0 0 30 30" fill="none" xmlns="http://www.w3.org/2000/svg">
<path d="M27.9375 3.46875H22.0312V1.21875C22.0312 1.06406 21.9047 0.9375 21.75 0.9375H19.7812C19.6266 0.9375 19.5 1.06406 19.5 1.21875V3.46875H10.5V1.21875C10.5 1.06406 10.3734 0.9375 10.2188 0.9375H8.25C8.09531 0.9375 7.96875 1.06406 7.96875 1.21875V3.46875H2.0625C1.44023 3.46875 0.9375 3.97148 0.9375 4.59375V27.9375C0.9375 28.5598 1.44023 29.0625 2.0625 29.0625H27.9375C28.5598 29.0625 29.0625 28.5598 29.0625 27.9375V4.59375C29.0625 3.97148 28.5598 3.46875 27.9375 3.46875ZM26.5312 26.5312H3.46875V13.1719H26.5312V26.5312ZM3.46875 10.7812V6H7.96875V7.6875C7.96875 7.84219 8.09531 7.96875 8.25 7.96875H10.2188C10.3734 7.96875 10.5 7.84219 10.5 7.6875V6H19.5V7.6875C19.5 7.84219 19.6266 7.96875 19.7812 7.96875H21.75C21.9047 7.96875 22.0312 7.84219 22.0312 7.6875V6H26.5312V10.7812H3.46875Z" fill="black"/>
</svg>
