<svg width="32" height="26" viewBox="0 0 32 26" fill="none" xmlns="http://www.w3.org/2000/svg">
<path d="M5.875 7.25C5.57663 7.25 5.29048 7.36853 5.07951 7.57951C4.86853 7.79048 4.75 8.07663 4.75 8.375C4.75 8.67337 4.86853 8.95952 5.07951 9.17049C5.29048 9.38147 5.57663 9.5 5.875 9.5H21.625C21.9234 9.5 22.2095 9.38147 22.4205 9.17049C22.6315 8.95952 22.75 8.67337 22.75 8.375C22.75 8.07663 22.6315 7.79048 22.4205 7.57951C22.2095 7.36853 21.9234 7.25 21.625 7.25H5.875ZM5.875 11.75C5.57663 11.75 5.29048 11.8685 5.07951 12.0795C4.86853 12.2905 4.75 12.5766 4.75 12.875V17.375C4.75 17.6734 4.86853 17.9595 5.07951 18.1705C5.29048 18.3815 5.57663 18.5 5.875 18.5H10.375C10.6734 18.5 10.9595 18.3815 11.1705 18.1705C11.3815 17.9595 11.5 17.6734 11.5 17.375V12.875C11.5 12.5766 11.3815 12.2905 11.1705 12.0795C10.9595 11.8685 10.6734 11.75 10.375 11.75H5.875ZM7 16.25V14H9.25V16.25H7ZM14.875 11.75C14.5766 11.75 14.2905 11.8685 14.0795 12.0795C13.8685 12.2905 13.75 12.5766 13.75 12.875C13.75 13.1734 13.8685 13.4595 14.0795 13.6705C14.2905 13.8815 14.5766 14 14.875 14H21.625C21.9234 14 22.2095 13.8815 22.4205 13.6705C22.6315 13.4595 22.75 13.1734 22.75 12.875C22.75 12.5766 22.6315 12.2905 22.4205 12.0795C22.2095 11.8685 21.9234 11.75 21.625 11.75H14.875ZM14.875 16.25C14.5766 16.25 14.2905 16.3685 14.0795 16.5795C13.8685 16.7905 13.75 17.0766 13.75 17.375C13.75 17.6734 13.8685 17.9595 14.0795 18.1705C14.2905 18.3815 14.5766 18.5 14.875 18.5H21.625C21.9234 18.5 22.2095 18.3815 22.4205 18.1705C22.6315 17.9595 22.75 17.6734 22.75 17.375C22.75 17.0766 22.6315 16.7905 22.4205 16.5795C22.2095 16.3685 21.9234 16.25 21.625 16.25H14.875ZM0.25 5C0.25 3.80653 0.724106 2.66193 1.56802 1.81802C2.41193 0.974106 3.55653 0.5 4.75 0.5H22.75C23.9435 0.5 25.0881 0.974106 25.932 1.81802C26.7759 2.66193 27.25 3.80653 27.25 5C28.4435 5 29.5881 5.47411 30.432 6.31802C31.2759 7.16193 31.75 8.30653 31.75 9.5V19.625C31.75 21.1168 31.1574 22.5476 30.1025 23.6025C29.0476 24.6574 27.6168 25.25 26.125 25.25H5.875C4.38316 25.25 2.95242 24.6574 1.89752 23.6025C0.842632 22.5476 0.25 21.1168 0.25 19.625V5ZM26.125 19.625C25.8266 19.625 25.5405 19.5065 25.3295 19.2955C25.1185 19.0845 25 18.7984 25 18.5V5C25 4.40326 24.7629 3.83097 24.341 3.40901C23.919 2.98705 23.3467 2.75 22.75 2.75H4.75C4.15326 2.75 3.58097 2.98705 3.15901 3.40901C2.73705 3.83097 2.5 4.40326 2.5 5V19.625C2.5 20.5201 2.85558 21.3786 3.48851 22.0115C4.12145 22.6444 4.97989 23 5.875 23H26.125C27.0201 23 27.8786 22.6444 28.5115 22.0115C29.1444 21.3786 29.5 20.5201 29.5 19.625V9.5C29.5 8.90326 29.2629 8.33097 28.841 7.90901C28.419 7.48705 27.8467 7.25 27.25 7.25V18.5C27.25 18.7984 27.1315 19.0845 26.9205 19.2955C26.7095 19.5065 26.4234 19.625 26.125 19.625Z" fill="black"/>
</svg>
