<svg width="32" height="32" viewBox="0 0 32 32" fill="none" xmlns="http://www.w3.org/2000/svg">
<path d="M31.2754 15.7539L16.7946 1.2836C16.6903 1.17913 16.5665 1.09625 16.4301 1.0397C16.2938 0.983149 16.1476 0.954041 16.0001 0.954041C15.8525 0.954041 15.7063 0.983149 15.57 1.0397C15.4336 1.09625 15.3098 1.17913 15.2055 1.2836L0.724658 15.7539C0.302783 16.1758 0.0637207 16.7488 0.0637207 17.3465C0.0637207 18.5875 1.07271 19.5965 2.31372 19.5965H3.8395V29.9219C3.8395 30.5441 4.34224 31.0469 4.9645 31.0469H13.75V23.1719H17.6876V31.0469H27.0356C27.6579 31.0469 28.1606 30.5441 28.1606 29.9219V19.5965H29.6864C30.284 19.5965 30.8571 19.3609 31.279 18.9356C32.1543 18.0566 32.1543 16.6328 31.2754 15.7539V15.7539Z" fill="#0F2D5A"/>
</svg>
