<svg width="28" height="28" viewBox="0 0 28 28" fill="none" xmlns="http://www.w3.org/2000/svg">
<path d="M25 14.76V14V13.23L26.92 11.55C27.2739 11.2381 27.5062 10.811 27.5757 10.3444C27.6453 9.87778 27.5476 9.4016 27.3 9.00001L24.94 5.00001C24.7646 4.69627 24.5125 4.44399 24.2088 4.26847C23.9052 4.09295 23.5607 4.00037 23.21 4.00001C22.9927 3.99834 22.7765 4.03212 22.57 4.10001L20.14 4.92001C19.7205 4.64122 19.2828 4.39066 18.83 4.17001L18.32 1.65001C18.2286 1.18961 17.9781 0.77605 17.6125 0.481712C17.2468 0.187374 16.7893 0.0310161 16.32 0.0400098H11.64C11.1707 0.0310161 10.7132 0.187374 10.3476 0.481712C9.98192 0.77605 9.73145 1.18961 9.64001 1.65001L9.13001 4.17001C8.67394 4.39061 8.23298 4.64116 7.81001 4.92001L5.43001 4.06001C5.22131 4.00563 5.00518 3.98537 4.79001 4.00001C4.43928 4.00037 4.09482 4.09295 3.79117 4.26847C3.48752 4.44399 3.23537 4.69627 3.06001 5.00001L0.700008 9.00001C0.466595 9.401 0.37986 9.87067 0.454658 10.3286C0.529455 10.7865 0.761132 11.2041 1.11001 11.51L3.00001 13.24V14.77L1.11001 16.45C0.751277 16.758 0.513264 17.1831 0.438207 17.65C0.36315 18.1168 0.455904 18.5951 0.700008 19L3.06001 23C3.23537 23.3037 3.48752 23.556 3.79117 23.7315C4.09482 23.9071 4.43928 23.9996 4.79001 24C5.00736 24.0017 5.22353 23.9679 5.43001 23.9L7.86001 23.08C8.27955 23.3588 8.71718 23.6094 9.17001 23.83L9.68001 26.35C9.77145 26.8104 10.0219 27.224 10.3876 27.5183C10.7532 27.8126 11.2107 27.969 11.68 27.96H16.4C16.8693 27.969 17.3268 27.8126 17.6925 27.5183C18.0581 27.224 18.3086 26.8104 18.4 26.35L18.91 23.83C19.3661 23.6094 19.807 23.3589 20.23 23.08L22.65 23.9C22.8565 23.9679 23.0727 24.0017 23.29 24C23.6407 23.9996 23.9852 23.9071 24.2888 23.7315C24.5925 23.556 24.8446 23.3037 25.02 23L27.3 19C27.5334 18.599 27.6202 18.1294 27.5454 17.6714C27.4706 17.2135 27.2389 16.7959 26.89 16.49L25 14.76ZM23.21 22L19.78 20.84C18.9771 21.5201 18.0594 22.0518 17.07 22.41L16.36 26H11.64L10.93 22.45C9.94843 22.0816 9.03573 21.5509 8.23001 20.88L4.79001 22L2.43001 18L5.15001 15.6C4.96511 14.5649 4.96511 13.5052 5.15001 12.47L2.43001 10L4.79001 6.00001L8.22001 7.16001C9.02294 6.4799 9.94061 5.94826 10.93 5.59001L11.64 2.00001H16.36L17.07 5.55001C18.0516 5.91843 18.9643 6.44915 19.77 7.12001L23.21 6.00001L25.57 10L22.85 12.4C23.0349 13.4352 23.0349 14.4949 22.85 15.53L25.57 18L23.21 22Z" fill="white"/>
<path d="M25 14.76V14V13.23L26.92 11.55C27.2739 11.2381 27.5062 10.811 27.5757 10.3444C27.6453 9.87778 27.5476 9.4016 27.3 9.00001L24.94 5.00001C24.7646 4.69627 24.5125 4.44399 24.2088 4.26847C23.9052 4.09295 23.5607 4.00037 23.21 4.00001C22.9927 3.99834 22.7765 4.03212 22.57 4.10001L20.14 4.92001C19.7205 4.64122 19.2828 4.39066 18.83 4.17001L18.32 1.65001C18.2286 1.18961 17.9781 0.77605 17.6125 0.481712C17.2468 0.187374 16.7893 0.0310161 16.32 0.0400098H11.64C11.1707 0.0310161 10.7132 0.187374 10.3476 0.481712C9.98192 0.77605 9.73145 1.18961 9.64001 1.65001L9.13001 4.17001C8.67394 4.39061 8.23298 4.64116 7.81001 4.92001L5.43001 4.06001C5.22131 4.00563 5.00518 3.98537 4.79001 4.00001C4.43928 4.00037 4.09482 4.09295 3.79117 4.26847C3.48752 4.44399 3.23537 4.69627 3.06001 5.00001L0.700008 9.00001C0.466595 9.401 0.37986 9.87067 0.454658 10.3286C0.529455 10.7865 0.761132 11.2041 1.11001 11.51L3.00001 13.24V14.77L1.11001 16.45C0.751277 16.758 0.513264 17.1831 0.438207 17.65C0.36315 18.1168 0.455904 18.5951 0.700008 19L3.06001 23C3.23537 23.3037 3.48752 23.556 3.79117 23.7315C4.09482 23.9071 4.43928 23.9996 4.79001 24C5.00736 24.0017 5.22353 23.9679 5.43001 23.9L7.86001 23.08C8.27955 23.3588 8.71718 23.6094 9.17001 23.83L9.68001 26.35C9.77145 26.8104 10.0219 27.224 10.3876 27.5183C10.7532 27.8126 11.2107 27.969 11.68 27.96H16.4C16.8693 27.969 17.3268 27.8126 17.6925 27.5183C18.0581 27.224 18.3086 26.8104 18.4 26.35L18.91 23.83C19.3661 23.6094 19.807 23.3589 20.23 23.08L22.65 23.9C22.8565 23.9679 23.0727 24.0017 23.29 24C23.6407 23.9996 23.9852 23.9071 24.2888 23.7315C24.5925 23.556 24.8446 23.3037 25.02 23L27.3 19C27.5334 18.599 27.6202 18.1294 27.5454 17.6714C27.4706 17.2135 27.2389 16.7959 26.89 16.49L25 14.76ZM23.21 22L19.78 20.84C18.9771 21.5201 18.0594 22.0518 17.07 22.41L16.36 26H11.64L10.93 22.45C9.94843 22.0816 9.03573 21.5509 8.23001 20.88L4.79001 22L2.43001 18L5.15001 15.6C4.96511 14.5649 4.96511 13.5052 5.15001 12.47L2.43001 10L4.79001 6.00001L8.22001 7.16001C9.02294 6.4799 9.94061 5.94826 10.93 5.59001L11.64 2.00001H16.36L17.07 5.55001C18.0516 5.91843 18.9643 6.44915 19.77 7.12001L23.21 6.00001L25.57 10L22.85 12.4C23.0349 13.4352 23.0349 14.4949 22.85 15.53L25.57 18L23.21 22Z" fill="white"/>
</svg>
